PathFileType	4	(X/Y/Z)	C:\Users\Basilio\Documents\Thesis Gigler\squatting_fais\c3dfiles\077\SLS_front_pre3\markers_experimental.trc
DataRate	CameraRate	NumFrames	NumMarkers	Units	OrigDataRate	OrigDataStartFrame	OrigNumFrames
200.000000	200.000000	4	60	mm	200.000000	733	1466
Frame#	Time	FHD			LBHD			RBHD			C7			T10			CLAV			LSHO			LUUPA			LMUPA			LDUPA			LLEP			LMEP			LRAD			LUL			LRFIN			RSHO			RUPA1			RMUPA			RDUPA			RLEP			RMEP			RUL			RUFIN			LASI			RASI			USACR			LSACR			RSACR			LTHI1			LTHI2			LTHI3			LTHI4			LLFC			LMFC			LTIB1			LTIB2			LTIB3			LTIB4			LLMAL			LHEE			LMT1			LMT2			LMT5			RTHI			RTHI2			RTHI3			RTHI4			RLFC			RMFC			RTIB1			RTIB2			RTIB3			RTIB4			RLMAL			RMMAL			RHEE			RMT1			RMT2			RMT5			RRAD			
		X1	Y1	Z1	X2	Y2	Z2	X3	Y3	Z3	X4	Y4	Z4	X5	Y5	Z5	X6	Y6	Z6	X7	Y7	Z7	X8	Y8	Z8	X9	Y9	Z9	X10	Y10	Z10	X11	Y11	Z11	X12	Y12	Z12	X13	Y13	Z13	X14	Y14	Z14	X15	Y15	Z15	X16	Y16	Z16	X17	Y17	Z17	X18	Y18	Z18	X19	Y19	Z19	X20	Y20	Z20	X21	Y21	Z21	X22	Y22	Z22	X23	Y23	Z23	X24	Y24	Z24	X25	Y25	Z25	X26	Y26	Z26	X27	Y27	Z27	X28	Y28	Z28	X29	Y29	Z29	X30	Y30	Z30	X31	Y31	Z31	X32	Y32	Z32	X33	Y33	Z33	X34	Y34	Z34	X35	Y35	Z35	X36	Y36	Z36	X37	Y37	Z37	X38	Y38	Z38	X39	Y39	Z39	X40	Y40	Z40	X41	Y41	Z41	X42	Y42	Z42	X43	Y43	Z43	X44	Y44	Z44	X45	Y45	Z45	X46	Y46	Z46	X47	Y47	Z47	X48	Y48	Z48	X49	Y49	Z49	X50	Y50	Z50	X51	Y51	Z51	X52	Y52	Z52	X53	Y53	Z53	X54	Y54	Z54	X55	Y55	Z55	X56	Y56	Z56	X57	Y57	Z57	X58	Y58	Z58	X59	Y59	Z59	X60	Y60	Z60	

734	3.665	-282.0083618164063	1615.06298828125	-1051.681884765625	-410.7187805175782	1499.477905273438	-1131.206787109375	-419.2773437500001	1485.3671875	-985.3975830078127	-448.8779907226564	1365.9765625	-1077.572509765625	-508.3819885253907	1043.933227539063	-1050.64892578125	-286.3841552734376	1308.326293945313	-1064.712036132813	-292.7098693847657	1354.446166992188	-1234.061645507813	-124.2119979858399	1320.263061523438	-1334.083984375	-97.40981292724612	1349.882934570313	-1303.834594726563	-54.88190078735353	1321.284057617188	-1337.695556640625	8.588649749755861	1334.009155273438	-1331.5078125	17.98299026489258	1264.259033203125	-1305.911376953125	297.5263061523438	1376.794067382813	-1204.3251953125	301.6291809082032	1391.7060546875	-1283.592407226563	391.2727355957032	1412.920166015625	-1205.885375976563	-307.1006164550782	1347.549682617188	-907.2244262695315	-151.3677520751953	1309.195678710938	-804.0485839843752	-126.378662109375	1335.553344726563	-837.2060546875002	-81.58960723876955	1309.565673828125	-805.2976074218752	-16.06099891662598	1316.389770507813	-817.0173339843752	-12.50387382507325	1242.987182617188	-844.7441406250002	277.0871887207032	1350.929931640625	-857.737731933594	359.4103393554688	1362.652587890625	-941.0466918945315	-317.8043212890626	854.4448242187502	-1155.466186523438	-359.6376953125001	868.9849853515627	-887.520690917969	-528.4826049804689	914.5643310546877	-1040.242065429688	-532.2235107421876	887.2791748046877	-1070.744873046875	-540.0519409179689	879.8552856445315	-1017.095153808594	-253.6746978759766	665.7577514648439	-1212.385986328125	-179.9836578369141	625.5180664062501	-1205.914794921875	-143.4730377197266	657.9485473632814	-1199.464233398438	-170.1995086669922	567.6203613281251	-1193.491088867188	-62.99696731567384	464.451629638672	-1151.457275390625	-59.68318176269533	461.3076171875001	-1017.540710449219	-141.3169555664063	274.9346923828126	-1047.42138671875	-189.8517150878907	240.7240447998047	-1116.993896484375	-168.8209381103516	230.3034210205079	-1077.221801757813	-222.685287475586	179.2477416992188	-1038.171752929688	-333.8247070312501	104.7196731567383	-1080.709838867188	-404.8921813964845	80.67247772216798	-1024.835693359375	-190.0757446289063	56.66659164428712	-1051.6123046875	-202.888900756836	43.32215118408204	-1099.671264648438	-308.1381225585938	119.6922912597657	-995.0908203125002	-142.5653686523438	676.5641479492189	-838.3898925781252	-77.51387786865236	693.6536865234376	-841.3529052734377	-66.74265289306642	726.2349243164064	-847.9184570312502	-16.47799873352051	641.2373657226564	-858.831726074219	40.24167251586915	608.8531494140626	-863.6746215820315	58.61817932128908	628.9140625000001	-990.9590454101565	174.5513610839844	555.0743408203126	-894.927673339844	189.1585998535157	454.1234741210939	-866.1072387695315	219.7567138671876	481.070770263672	-889.091979980469	249.7689514160157	455.5586853027345	-932.9630126953127	336.0922241210938	279.3644714355469	-904.9554443359377	338.9829406738282	308.7934265136719	-992.1541137695315	318.6791381835938	206.0732421875001	-965.0373535156252	478.3254394531251	370.6640930175782	-961.6455078125002	477.8911437988282	365.4759216308594	-923.1094360351565	486.3943786621095	332.5875854492188	-879.5984497070315	nan	nan	nan	
735	3.67	-282.1577758789063	1615.200073242188	-1051.691528320313	-410.8297424316407	1499.377685546875	-1131.195678710938	-419.5957336425782	1485.14306640625	-985.2386474609377	-448.0220642089845	1365.934692382813	-1077.669311523438	-508.589569091797	1044.201049804688	-1050.673950195313	-286.5469360351563	1308.63232421875	-1064.7099609375	-292.9357910156251	1354.740844726563	-1234.047241210938	-124.3799667358399	1320.542846679688	-1334.006713867188	-97.50695800781253	1350.201538085938	-1303.776123046875	-55.03877639770509	1321.536254882813	-1337.589233398438	8.194949150085451	1334.336059570313	-1331.2890625	17.7427978515625	1264.696533203125	-1305.655639648438	297.2499694824219	1377.369384765625	-1203.81982421875	301.5328674316407	1392.170166015625	-1283.096801757813	390.8524780273439	1412.747802734375	-1205.703369140625	-307.3347473144532	1347.703369140625	-907.1655273437502	-151.6580352783203	1309.465698242188	-803.9349365234377	-126.6058654785157	1335.76220703125	-837.1680297851565	-81.88033294677736	1309.86328125	-805.2138671875002	-16.3381404876709	1316.54248046875	-817.0132446289065	-12.77645969390869	1243.148071289063	-844.5364379882815	276.8791809082032	1350.874267578125	-857.5168457031252	359.1770019531251	1362.536010742188	-940.8251953125002	-317.9571228027344	854.098083496094	-1155.4013671875	-359.9084167480469	869.395202636719	-887.5056152343752	-528.5646972656251	914.9010009765627	-1040.369750976563	-532.4093627929689	887.5616455078127	-1070.833984375	-540.1152343750001	880.343933105469	-1017.237548828125	-253.8243865966797	665.7817993164064	-1212.359741210938	-180.16015625	625.6607055664064	-1206.098876953125	-143.7158355712891	658.1412353515626	-1199.549560546875	-170.5355377197266	568.0012207031251	-1193.579345703125	-63.3594207763672	464.6192016601564	-1151.705810546875	-59.9926109313965	461.454803466797	-1017.709594726563	-141.4636840820313	274.9857788085938	-1047.523803710938	-189.9591674804688	240.7833251953126	-1117.074096679688	-168.8856048583985	230.4557189941407	-1077.350708007813	-222.7358703613282	179.2706604003907	-1038.298706054688	-333.7734069824219	104.6065444946289	-1080.763671875	-404.9221191406251	80.66735076904298	-1024.919799804688	-191.1180419921875	57.94979476928712	-1052.049072265625	-203.0092773437501	43.30230331420899	-1099.660400390625	-308.1748657226563	119.8750076293946	-994.933288574219	-142.7159729003907	677.1701660156251	-838.3824462890627	-77.59375762939455	694.4338989257814	-841.2815551757815	-67.00225067138673	726.7504882812501	-847.9602050781252	-16.61818885803223	641.5548095703126	-858.9881591796877	40.02655029296876	609.3373413085939	-863.7053222656252	58.33781051635744	629.7205200195314	-991.120300292969	174.4549713134766	555.9386596679689	-895.0064697265627	189.2708740234375	454.9080810546876	-866.2254028320315	219.7596588134766	481.6520080566407	-889.1826782226565	249.7638397216797	456.5628967285157	-933.149597167969	336.2441406250001	280.1757202148438	-905.2000122070315	339.8010253906251	309.6668395996094	-992.4182128906252	318.9238586425782	207.1089172363282	-965.1859130859377	478.492645263672	371.6294250488282	-961.8264160156252	477.9988403320314	366.3808898925782	-923.2950439453127	486.4199218750001	333.4704895019532	-879.8269653320315	nan	nan	nan	
736	3.675	-282.5321960449219	1615.49267578125	-1051.73046875	-410.8602294921876	1499.446166992188	-1131.180053710938	-419.8814086914064	1485.120483398438	-985.207702636719	-448.1718750000001	1366.330200195313	-1077.75634765625	-508.8136596679689	1044.454467773438	-1050.71240234375	-286.8000488281251	1309.009643554688	-1064.706298828125	-293.0786437988282	1354.946166992188	-1234.0009765625	-124.205192565918	1320.6806640625	-1333.836059570313	-97.6426696777344	1350.571044921875	-1303.651245117188	-55.3645706176758	1321.860717773438	-1337.514404296875	8.142589569091799	1334.70654296875	-1331.029174804688	17.60345268249512	1265.02099609375	-1305.499633789063	296.9682006835938	1377.894775390625	-1203.365478515625	301.4450988769532	1392.48486328125	-1282.593383789063	390.7630004882814	1413.244750976563	-1205.128662109375	-307.5657348632813	1347.997924804688	-907.153259277344	-151.7959899902344	1309.911254882813	-803.7998657226565	-126.9336166381836	1335.940551757813	-837.1683349609377	-82.13928222656251	1310.070190429688	-805.123962402344	-16.61154365539551	1316.702392578125	-816.833923339844	-13.11907291412354	1243.176147460938	-844.3526611328127	276.6322631835938	1350.95849609375	-857.3251953125002	358.9442443847657	1362.512817382813	-940.6608886718752	-317.8631591796876	855.1858520507815	-1155.336547851563	-360.1483459472657	869.7801513671877	-887.436950683594	-528.7348632812501	915.199157714844	-1040.464599609375	-532.4784545898439	888.0607910156252	-1070.9150390625	-540.2410278320314	880.6358032226565	-1017.31982421875	-253.8303375244141	666.2761230468751	-1212.350463867188	-179.6515045166016	625.6776733398439	-1205.863891601563	-143.8985900878907	658.3798217773439	-1199.596069335938	-169.8371887207032	567.7655639648439	-1193.417358398438	-63.96865081787111	464.8662719726564	-1151.700805664063	-60.38584899902345	461.5548095703126	-1017.906921386719	-141.6207580566407	275.1476745605469	-1047.701782226563	-190.0512847900391	240.8945617675782	-1117.121215820313	-168.9975128173828	230.4471893310547	-1077.509643554688	-222.8059234619141	179.3860321044922	-1038.394775390625	-333.6399536132813	104.4478225708008	-1080.80615234375	-404.923797607422	80.66011810302736	-1024.916625976563	-191.122299194336	57.9452590942383	-1052.042358398438	-203.0234832763672	43.29864883422852	-1099.665649414063	-308.1812744140626	119.909912109375	-994.9946289062502	-142.9165496826172	677.4904785156251	-838.4915771484377	-77.80335998535158	694.8010864257814	-841.2822265625002	-67.21950531005861	727.2562255859376	-847.8946533203127	-16.69526290893555	642.1068115234376	-858.9048461914065	39.97544479370118	610.0874023437501	-863.802673339844	58.42871856689455	630.3577880859376	-991.094177246094	174.3236389160157	556.7631835937501	-895.0244750976565	189.3504791259766	455.632293701172	-866.334655761719	219.7713470458985	482.3660278320314	-889.3587646484377	250.0036315917969	457.092498779297	-933.0477294921877	336.4063415527344	280.9958190917969	-905.4522705078127	340.1487426757813	310.5392150878907	-992.7986450195315	318.8693542480469	207.2316284179688	-965.5515747070315	478.5984497070314	372.5630187988282	-961.9884033203127	478.4468688964845	367.5949096679688	-923.4183349609377	486.7090454101564	334.5510559082032	-879.8666992187502	nan	nan	nan	
737	3.68	-282.8232116699219	1615.918334960938	-1051.74951171875	-411.2883911132814	1500.061889648438	-1131.279418945313	-420.1119079589845	1485.488647460938	-985.3165283203127	-448.2921447753907	1366.67333984375	-1077.783325195313	-508.973114013672	1044.785278320313	-1050.708740234375	-286.9528198242188	1309.356079101563	-1064.770141601563	-293.1007385253907	1355.340209960938	-1233.931274414063	-124.4032669067383	1320.991088867188	-1333.766357421875	-97.79429626464847	1350.860473632813	-1303.576049804688	-55.70079040527345	1322.213012695313	-1337.35693359375	8.018400192260744	1335.075317382813	-1330.759155273438	17.27363586425782	1265.39208984375	-1305.038940429688	296.6842346191407	1378.30859375	-1202.837890625	301.4458007812501	1392.843505859375	-1282.015014648438	390.3855590820314	1415.592651367188	-1204.1103515625	-307.7766113281251	1348.255126953125	-907.0967407226565	-151.9998016357422	1310.319213867188	-803.6594238281252	-127.0917053222657	1336.259765625	-837.0556640625002	-82.41884613037111	1310.22509765625	-805.081481933594	-16.87126922607422	1316.972290039063	-816.7171630859377	-13.3734359741211	1243.397216796875	-844.298522949219	276.4069213867188	1351.017700195313	-857.0958251953127	358.7699279785157	1362.49462890625	-940.4436035156252	-317.8796997070313	855.8984375000002	-1155.270751953125	-360.3544311523438	869.9658203125002	-887.292419433594	-528.9639282226564	915.5257568359377	-1040.541015625	-532.6458129882814	888.4281005859377	-1071.0341796875	-540.4104614257814	880.8880004882815	-1017.405944824219	-253.6333618164063	666.5856323242189	-1212.36181640625	-179.9037017822266	625.9324951171876	-1205.980346679688	-144.096923828125	658.5059204101564	-1199.598388671875	-169.9389038085938	567.9459838867189	-1193.621215820313	-64.23684692382814	465.1541748046876	-1151.98095703125	-60.63103485107423	461.7877197265626	-1018.128662109375	-141.8740539550782	275.3345336914063	-1047.837158203125	-190.2223815917969	240.9683532714844	-1117.202270507813	-169.254379272461	230.6512908935547	-1077.740478515625	-222.8865051269532	179.3829956054688	-1038.51806640625	-333.6738586425782	104.4965286254883	-1080.842651367188	-404.9275817871095	80.61136627197267	-1024.966796875	-190.5750274658203	57.25154113769533	-1051.783813476563	-202.9485473632813	43.30635070800782	-1099.6728515625	-308.1852111816407	119.8716125488282	-995.0968017578127	-143.1636352539063	677.8239135742189	-838.5887451171877	-78.05136871337892	695.3360595703126	-841.3352050781252	-67.34690093994142	727.8859863281251	-847.8933105468752	-16.67758750915528	642.7202758789064	-858.922790527344	39.86372756958009	610.5978393554689	-863.9175415039065	58.61465072631837	630.9606323242189	-991.0988769531252	174.3692169189453	557.4573364257814	-895.013122558594	189.3166198730469	456.0949096679689	-866.4832153320315	219.6785583496094	483.1921386718751	-889.504333496094	250.0714416503907	457.9033813476564	-933.1555175781252	336.4288635253907	282.0586853027344	-905.5208129882815	340.2547302246094	311.5322875976563	-992.5144653320315	319.5256958007813	208.8305816650391	-965.8643188476565	478.474090576172	373.4878234863282	-961.8878173828127	477.6794738769532	367.8060302734376	-923.1158447265627	486.7355957031251	335.5960083007813	-880.0656738281252	nan	nan	nan	
